<svg viewBox="0 0 623.5 192" itemprop="logo">
<defs>
<linearGradient id="availityGradient" gradientUnits="userSpaceOnUse" x1="0" y1="96.0015" x2="205.7945" y2="96.0015">
<stop offset="0" style="stop-color: #f26927;"></stop>
<stop offset="0.1623" style="stop-color: #f37626;"></stop>
<stop offset="0.4881" style="stop-color: #f69723;"></stop>
<stop offset="0.9437" style="stop-color: #fccc10;"></stop>
<stop offset="1" style="stop-color: #fdd309;"></stop>
</linearGradient>
</defs>
<path class="text" d="M609.6,87.7c0-3.8,3.1-7,6.9-7c3.8,0,6.9,3.1,6.9,7c0,3.8-3.1,6.9-6.9,6.9C612.7,94.7,609.6,91.6,609.6,87.7 M622.4,87.7c0-3.5-2.5-6-5.9-6c-3.4,0-5.9,2.5-5.9,6c0,3.5,2.5,6,5.9,6C619.9,93.7,622.4,91.2,622.4,87.7 M614,83.5h2.7 c1.7,0,2.6,1.1,2.6,2.4c0,1.2-0.8,2-2.2,2.2c0.4,0.3,0.6,0.6,1,1.1l2,2.8h-1.5l-2-3c-0.4-0.6-0.7-0.8-1.3-0.8v3.8H614V83.5z M616.1,87.2c0.9,0,2-0.1,2-1.3c0-0.8-0.4-1.3-1.6-1.3h-1.2v2.6H616.1z M305.6,139.3h-11.3c-1,0-1.8-0.8-2-1.7l-4.9-19.2h-24.6 l-4.9,19.2c-0.2,0.9-1.1,1.7-2,1.7h-11.3c-1.1,0-1.9-0.7-1.9-1.7c0-0.1,0.1-0.3,0.1-0.5l17.5-63.2c2.6-9.4,10.3-10.3,14.9-10.3 c4.6,0,12.3,0.9,14.9,10.3l17.5,63.2c0,0.2,0.1,0.4,0.1,0.5C307.5,138.5,306.6,139.3,305.6,139.3 M276.7,77 c-0.3-1.2-0.6-1.6-1.7-1.6c-1.1,0-1.4,0.4-1.7,1.6l-7.7,29.9h18.8L276.7,77z M360.4,84c0-0.9-0.8-1.6-1.7-1.6H348 c-1,0-1.9,0.7-2.3,2l-10.3,42.2c-0.4,1.9-1.2,2.5-2,2.5c-0.9,0-1.6-0.6-2-2.5l-10.3-42.2c-0.3-1.3-1.2-2-2.1-2h-10.7 c-1,0-1.7,0.7-1.7,1.6c0,0.2,0,0.5,0.1,0.7l13.5,45.9c2.1,7.5,7.8,9.5,13.2,9.5c5.4,0,11.2-2,13.4-9.5l13.5-45.9 C360.4,84.5,360.4,84.2,360.4,84 M409.5,139.3h-9.1c-1.2,0-2.1-0.9-2.1-2v-1.6c-4.9,2.8-9.9,4.4-15.1,4.4c-8.9,0-18.5-3.2-18.5-16.8 v-0.4c0-11.5,7.5-17.4,26.1-17.4h6.7v-4.4c0-6.5-3.1-8.2-9.4-8.2c-6.8,0-13.9,0.4-17.4,0.8h-0.5c-1.1,0-1.9-0.3-1.9-1.7v-6.5 c0-1.1,0.6-1.8,2-2.1c4.3-0.8,10.5-1.6,17.8-1.6c15.2,0,23.5,6.3,23.5,19.2v36.3C411.6,138.3,410.7,139.3,409.5,139.3 M397.5,114.3 h-6.7c-9.7,0-11.9,2.9-11.9,8.6v0.4c0,4.9,2.4,6.3,7.7,6.3c3.9,0,7.8-1.2,10.9-2.8V114.3z M439.7,72.8v-8.9c0-1.1-1-2-2.1-2h-10.4 c-1.2,0-2.3,0.9-2.3,2v8.9c0,1.1,1.1,2,2.3,2h10.4C438.8,74.8,439.7,73.9,439.7,72.8 M439.4,137.1V84.4c0-1.1-1-2-2.1-2h-9.8 c-1.2,0-2.1,0.9-2.1,2v52.7c0,1.1,1,2.1,2.1,2.1h9.8C438.5,139.3,439.4,138.3,439.4,137.1 M467.7,137.1V64.6c0-1.1-0.9-2-2-2h-9.9 c-1.2,0-2.1,0.9-2.1,2v72.6c0,1.1,1,2.1,2.1,2.1h9.9C466.9,139.3,467.7,138.3,467.7,137.1 M496.4,72.8v-8.9c0-1.1-1-2-2.1-2h-10.4 c-1.2,0-2.3,0.9-2.3,2v8.9c0,1.1,1.1,2,2.3,2h10.4C495.4,74.8,496.4,73.9,496.4,72.8 M496.1,137.1V84.4c0-1.1-1-2-2.1-2h-9.8 c-1.2,0-2.1,0.9-2.1,2v52.7c0,1.1,1,2.1,2.1,2.1h9.8C495.1,139.3,496.1,138.3,496.1,137.1 M540.4,129.7h-5.7c-3.8,0-4.2-0.6-4.2-5.6 V92.4h9.6c1.2,0,2.1-0.9,2.1-2v-6c0-1.1-1-2-2.1-2h-9.6V69.1c0-1-0.7-1.5-1.7-1.5h-0.4l-9.6,1.6c-1.2,0.2-2.1,0.9-2.1,2v11.2h0H507 c-1.2,0-2.1,0.9-2.1,2v6c0,1.1,1,2,2.1,2h9.6h0V124c0,13.5,4.6,16,16.6,16c2.4,0,4.7-0.3,7.3-0.7c1.4-0.2,2-0.8,2-1.8v-6.3 C542.6,130.2,541.8,129.7,540.4,129.7 M602.1,84.1c0-0.9-0.9-1.7-1.9-1.7h-10.9c-1.1,0-1.9,0.8-2.1,1.7l-11.5,43.4h-0.3h-0.5h-0.1 c-0.6,0-1.1-0.5-1.5-2.2l-10.8-41c-0.2-0.9-1.1-1.8-2-1.8h-10.8c-1.4,0-2,0.6-2,1.6c0,0.2,0,0.4,0.1,0.7l14,46.2 c2.4,7.6,6.2,8.4,9.3,8.4h1.6l-0.9,3c-1.5,5.2-3.9,6.5-8.4,6.5c-3,0-9.1-0.5-12.1-0.6h-0.2c-1.2,0-2.1,0.7-2.1,1.8v6.4 c0,1,1.1,1.4,2.2,1.7c2.5,0.7,7.8,1.3,11.3,1.3c14.5,0,18.5-4.8,21.8-15.8L602,84.7C602.1,84.5,602.1,84.3,602.1,84.1"></path>
<path class="gradient" fill="url(#availityGradient)" d="M164.2,63c-7.1,0-13.6,3.5-18.5,9.8l-10.4,13.7l-13.8,18.3l0,0l-11.9,15.7l-0.2,0.4 c-2.4,4.1-2.6,8.6-0.5,12.1c2.1,3.6,6,5.6,10.8,5.6h31.4c4.8,0,8.7-2.1,10.8-5.6c2.1-3.6,1.9-8-0.5-12.1l-0.2-0.4l-14.5-19.2 l-8.7,11.6l8.9,11.8H124l5.9-7.8l0,0l19.3-25.6l0,0l7.6-10c2.2-2.9,4.7-4.3,7.4-4.3h13.8c6.3,0,10.9,1.8,12.8,5.1 c1.9,3.2,1.1,8.2-2,13.6l-42.7,73.9c-3.1,5.4-7.1,8.5-10.8,8.5c-3.7,0-7.6-3.1-10.8-8.5L82.3,96.1l-9.1,12.1l39.4,68.3 c5.7,9.9,14,15.5,22.9,15.5c8.8,0,17.2-5.6,22.9-15.5l42.7-73.9c5.7-9.9,6.4-19.9,2-27.6c-4.4-7.7-13.5-12.1-24.9-12.1H164.2z M47.5,15.5L4.9,89.4c-3.2,5.5-4.8,11-4.9,16.2v0.6c0,3.9,1,7.5,2.9,10.8c4.4,7.6,13.5,12.1,24.9,12.1h13.8c7.1,0,13.6-3.5,18.5-9.8 l10.4-13.7l13.8-18.3v0l11.9-15.7l0.2-0.4c2.4-4.1,2.6-8.6,0.5-12.1c-2.1-3.6-6-5.6-10.8-5.6H54.7c-4.8,0-8.7,2.1-10.8,5.6 c-2.1,3.6-1.9,8,0.5,12.2l0.2,0.4l14.6,19.2L68,79.1L59,67.3h22.7l-5.9,7.8h0l-19.3,25.6l0,0l-7.6,10c-2.2,2.8-4.7,4.3-7.4,4.3H27.7 c-6.2,0-10.9-1.9-12.8-5.1c-1.9-3.2-1.1-8.2,2-13.6l42.7-73.9c3.1-5.4,7.1-8.5,10.8-8.5c3.7,0,7.6,3.1,10.8,8.5l42.4,73.4l9.2-12.1 L93.3,15.5C87.6,5.7,79.2,0,70.4,0C61.6,0,53.2,5.7,47.5,15.5"></path>
</svg>